<?xml version="1.0" encoding="UTF-8" standalone="no"?>
<!DOCTYPE svg PUBLIC "-//W3C//DTD SVG 1.1//EN" "http://www.w3.org/Graphics/SVG/1.1/DTD/svg11.dtd">
<svg xmlns="http://www.w3.org/2000/svg" xml:space="preserve" width="120.65mm" height="120.65mm" version="1.1" style="shape-rendering:geometricPrecision; text-rendering:geometricPrecision; image-rendering:optimizeQuality; fill-rule:evenodd; clip-rule:evenodd"
viewBox="0 0 12050.76 12050.76"
 xmlns:xlink="http://www.w3.org/1999/xlink"
 xmlns:xodm="http://www.corel.com/coreldraw/odm/2003">
 <defs>
  <style type="text/css">
   <![CDATA[
    .str0 {stroke:#86A9AF;stroke-width:7.61;stroke-miterlimit:22.9256}
    .fil0 {fill:none;fill-rule:nonzero}
    .fil2 {fill:#3B437F}
    .fil4 {fill:#5AFEB7}
    .fil3 {fill:#86A9AF}
    .fil1 {fill:#AAC7C8}
   ]]>
  </style>
 </defs>
 <g id="Capa_x0020_1">
  <metadata id="CorelCorpID_0Corel-Layer"/>
  <rect class="fil0" width="12050.76" height="12050.76"/>
  <g id="_2397730833376">
   <path class="fil1" d="M3621.17 3944.76l323.59 -323.59c69.05,-69.04 153.86,-38.43 240.44,-10.58l342.66 110.21c278.27,-181.2 591.35,-313.39 927.04,-384.31l164.17 -319.84c41.53,-80.91 79.87,-162.53 177.5,-162.53l457.62 0c97.63,0 135.97,81.62 177.5,162.53l164.22 319.94c335.65,70.88 648.67,203.09 926.88,384.25l342.77 -110.25c86.58,-27.86 171.39,-58.46 240.44,10.58l323.59 323.59c69.04,69.05 38.43,153.86 10.58,240.44l-110.21 342.66c181.22,278.25 313.41,591.35 384.33,927.05l319.82 164.16c80.91,41.53 162.53,79.87 162.53,177.5l0 457.62c0,97.63 -81.62,135.97 -162.53,177.5l-319.94 164.22c-70.88,335.65 -203.09,648.67 -384.25,926.88l110.25 342.77c27.86,86.58 58.46,171.39 -10.58,240.44l-323.59 323.59c-69.05,69.04 -153.86,38.43 -240.44,10.58l-342.66 -110.21c-278.25,181.22 -591.35,313.41 -927.05,384.33l-164.16 319.82c-41.53,80.91 -79.87,162.53 -177.5,162.53l-457.62 0c-97.63,0 -135.97,-81.62 -177.5,-162.53l-164.22 -319.94c-335.65,-70.88 -648.67,-203.09 -926.88,-384.25l-342.77 110.25c-86.58,27.86 -171.39,58.46 -240.44,-10.58l-323.59 -323.59c-69.04,-69.05 -38.43,-153.86 -10.58,-240.44l110.21 -342.66c-181.22,-278.25 -313.41,-591.35 -384.33,-927.05l-319.82 -164.16c-80.91,-41.53 -162.53,-79.87 -162.53,-177.5l0 -457.62c0,-97.63 81.62,-135.97 162.53,-177.5l319.83 -164.16c70.92,-335.7 203.1,-648.8 384.32,-927.05l-110.21 -342.66c-27.86,-86.58 -58.46,-171.39 10.58,-240.44zm2404.21 -331.39c1332.11,0 2412.01,1079.9 2412.01,2412.01 0,1332.11 -1079.9,2412.01 -2412.01,2412.01 -1332.11,0 -2412.01,-1079.9 -2412.01,-2412.01 0,-1332.11 1079.9,-2412.01 2412.01,-2412.01z"/>
   <circle class="fil2" cx="6025.38" cy="6025.38" r="1867.31"/>
   <path class="fil3 str0" d="M6025.38 3613.37c1332.11,0 2412.01,1079.9 2412.01,2412.01 0,1332.11 -1079.9,2412.01 -2412.01,2412.01 -1332.11,0 -2412.01,-1079.9 -2412.01,-2412.01 0,-1332.11 1079.9,-2412.01 2412.01,-2412.01zm0 221.91c1209.55,0 2190.1,980.55 2190.1,2190.1 0,1209.55 -980.55,2190.1 -2190.1,2190.1 -1209.55,0 -2190.1,-980.55 -2190.1,-2190.1 0,-1209.55 980.55,-2190.1 2190.1,-2190.1z"/>
   <g>
    <rect class="fil4" transform="matrix(-0.704083 -0.188658 -0.188658 0.704083 6364.34 5170.56)" width="291.28" height="2506.23" rx="145.64" ry="145.64"/>
    <path class="fil4" d="M7308.09 5942.14l0.01 0.01 1.9 1.94 0.01 0.01 1.83 1.99 0.01 0.01 1.78 2.01 0.01 0.02 1.71 2.05 0.02 0.02 1.64 2.08 0.02 0.02 1.59 2.11 0.01 0.01 1.53 2.16 0.02 0.01 1.46 2.17 0.02 0.02 1.41 2.21 0.02 0.01 1.35 2.24 0.01 0.01 1.28 2.26 0.02 0.02 1.22 2.28 0.02 0.01 1.16 2.31 0.02 0.02 1.11 2.33c18.15,39.27 11.1,87.57 -21.15,119.83l-550.21 550.2c-41.28,41.28 -108.84,41.28 -150.12,0l0 -0.01c-41.29,-41.28 -41.29,-108.84 0,-150.12l475.13 -475.13 -475.15 -475.15c-41.28,-41.28 -41.28,-108.84 0,-150.12l0.01 -0.01c41.28,-41.28 108.84,-41.28 150.12,0l550.21 550.21z"/>
    <path class="fil4" d="M4747.85 5942.14l-0.01 0.01 -1.9 1.94 -0.01 0.01 -1.83 1.99 -0.01 0.01 -1.78 2.01 -0.01 0.02 -1.71 2.05 -0.02 0.02 -1.64 2.08 -0.02 0.02 -1.59 2.11 -0.01 0.01 -1.53 2.16 -0.02 0.01 -1.46 2.17 -0.02 0.02 -1.41 2.21 -0.02 0.01 -1.35 2.24 -0.01 0.01 -1.28 2.26 -0.02 0.02 -1.22 2.28 -0.02 0.01 -1.16 2.31 -0.02 0.02 -1.11 2.33c-18.15,39.27 -11.1,87.57 21.15,119.83l550.21 550.2c41.28,41.28 108.84,41.28 150.12,0l0 -0.01c41.29,-41.28 41.29,-108.84 0,-150.12l-475.13 -475.13 475.15 -475.15c41.28,-41.28 41.28,-108.84 0,-150.12l-0.01 -0.01c-41.28,-41.28 -108.84,-41.28 -150.12,0l-550.21 550.21z"/>
   </g>
  </g>
 </g>
</svg>